<svg width="50" height="50" viewBox="0 0 50 50" fill="none" xmlns="http://www.w3.org/2000/svg">
<circle cx="25" cy="25" r="25" fill="#52FFA8"/>
<g clip-path="url(#clip0_1_49)">
<path d="M31.6 14C32.767 14 33.8861 14.4636 34.7113 15.2887C35.5364 16.1139 36 17.233 36 18.4V31.6C36 32.767 35.5364 33.8861 34.7113 34.7113C33.8861 35.5364 32.767 36 31.6 36H18.4C17.233 36 16.1139 35.5364 15.2887 34.7113C14.4636 33.8861 14 32.767 14 31.6V18.4C14 17.233 14.4636 16.1139 15.2887 15.2887C16.1139 14.4636 17.233 14 18.4 14H31.6ZM30.5 28.3C29.9165 28.3 29.3569 28.5318 28.9444 28.9444C28.5318 29.3569 28.3 29.9165 28.3 30.5C28.3 31.0835 28.5318 31.6431 28.9444 32.0556C29.3569 32.4682 29.9165 32.7 30.5 32.7C31.0835 32.7 31.6431 32.4682 32.0556 32.0556C32.4682 31.6431 32.7 31.0835 32.7 30.5C32.7 29.9165 32.4682 29.3569 32.0556 28.9444C31.6431 28.5318 31.0835 28.3 30.5 28.3ZM25 22.8C24.4165 22.8 23.8569 23.0318 23.4444 23.4444C23.0318 23.8569 22.8 24.4165 22.8 25C22.8 25.5835 23.0318 26.1431 23.4444 26.5556C23.8569 26.9682 24.4165 27.2 25 27.2C25.5835 27.2 26.1431 26.9682 26.5556 26.5556C26.9682 26.1431 27.2 25.5835 27.2 25C27.2 24.4165 26.9682 23.8569 26.5556 23.4444C26.1431 23.0318 25.5835 22.8 25 22.8ZM19.5 17.3C18.9165 17.3 18.3569 17.5318 17.9444 17.9444C17.5318 18.3569 17.3 18.9165 17.3 19.5C17.3 20.0835 17.5318 20.6431 17.9444 21.0556C18.3569 21.4682 18.9165 21.7 19.5 21.7C20.0835 21.7 20.6431 21.4682 21.0556 21.0556C21.4682 20.6431 21.7 20.0835 21.7 19.5C21.7 18.9165 21.4682 18.3569 21.0556 17.9444C20.6431 17.5318 20.0835 17.3 19.5 17.3Z" fill="#202733"/>
</g>
<defs>
<clipPath id="clip0_1_49">
<rect width="22" height="22" fill="white" transform="translate(14 14)"/>
</clipPath>
</defs>
</svg>
